<svg width="19" height="21" viewBox="0 0 19 21" fill="none" xmlns="http://www.w3.org/2000/svg">
<path d="M18.0126 2.2001C17.9584 2.20426 12.4209 2.67926 9.7876 0.200098C9.62927 0.045931 9.37926 0.045931 9.21676 0.200098C6.58343 2.67926 1.0501 2.20426 0.991764 2.2001C0.875098 2.1876 0.762598 2.22926 0.675098 2.30843C0.587598 2.3876 0.537598 2.49593 0.537598 2.6126V6.4751C0.537598 19.3793 9.3501 20.9001 9.4376 20.9126C9.45843 20.9168 9.48343 20.9168 9.50426 20.9168C9.5251 20.9168 9.54593 20.9168 9.56676 20.9126C9.65426 20.9001 18.4668 19.3793 18.4668 6.4751V2.6126C18.4668 2.49593 18.4168 2.3876 18.3334 2.30843C18.2459 2.22926 18.1293 2.1876 18.0126 2.2001V2.2001ZM13.9543 11.5584C13.9543 11.7876 13.7668 11.9751 13.5376 11.9751H10.9709V14.5418C10.9709 14.7709 10.7834 14.9584 10.5543 14.9584H8.44593C8.21676 14.9584 8.02926 14.7709 8.02926 14.5418V11.9751H5.4626C5.23343 11.9751 5.04593 11.7876 5.04593 11.5584V9.4501C5.04593 9.22093 5.23343 9.03343 5.4626 9.03343H8.02926V6.46676C8.02926 6.2376 8.21676 6.0501 8.44593 6.0501H10.5543C10.7834 6.0501 10.9709 6.2376 10.9709 6.46676V9.03343H13.5376C13.7668 9.03343 13.9543 9.22093 13.9543 9.4501V11.5584Z" fill="#BDBDBD"/>
</svg>
