<svg width="17" height="17" viewBox="0 0 17 17" fill="none" xmlns="http://www.w3.org/2000/svg">
<g clip-path="url(#clip0_23_2489)">
<path d="M16.4978 12.9851C16.4966 12.9503 16.4953 12.9154 16.4941 12.8803C16.4929 12.8452 16.4916 12.8101 16.4903 12.7747L16.4892 12.7483L16.4887 12.7351L16.4886 12.7317L16.4883 12.7021L16.4882 12.7007L16.4877 12.6952L16.4844 12.6513C16.4798 12.5927 16.4752 12.5339 16.4707 12.475L16.4672 12.4305L16.4619 12.3727C16.4583 12.3343 16.4547 12.2959 16.4511 12.2576C16.4473 12.2193 16.4435 12.1811 16.4398 12.1431C16.4378 12.124 16.4359 12.1051 16.434 12.0861C16.4317 12.0686 16.4294 12.0511 16.427 12.0336C16.4079 11.8948 16.3907 11.7584 16.3663 11.6272C16.3547 11.5616 16.3441 11.4971 16.3321 11.4342C16.319 11.3714 16.3062 11.3101 16.2937 11.2504C16.2701 11.1308 16.2404 11.0192 16.2155 10.916C16.2091 10.8902 16.2028 10.8649 16.1967 10.8403C16.1899 10.8158 16.1832 10.7918 16.1767 10.7685C16.1635 10.7219 16.1511 10.6777 16.1393 10.6362C16.1274 10.5947 16.1168 10.5558 16.1058 10.5202C16.0944 10.4846 16.084 10.4519 16.0746 10.4224C16.0607 10.3791 16.0489 10.3426 16.0396 10.3137C16.0259 10.2711 15.9809 10.2472 15.9378 10.2594L13.2328 11.0303C13.1916 11.0421 13.166 11.0831 13.1739 11.1253C13.1768 11.141 13.1802 11.159 13.1839 11.1792C13.1878 11.1995 13.1921 11.222 13.1967 11.2464C13.2011 11.271 13.2045 11.2979 13.209 11.3263C13.2133 11.3547 13.2179 11.385 13.2228 11.4169C13.2252 11.4329 13.228 11.4491 13.2302 11.4659C13.2321 11.4828 13.2341 11.5 13.2361 11.5176C13.2436 11.5881 13.2549 11.6637 13.2599 11.7447C13.2632 11.785 13.2666 11.8264 13.2701 11.8687C13.2728 11.9111 13.2741 11.9545 13.2763 11.9985C13.2822 12.0863 13.2811 12.1777 13.2828 12.2699L13.2832 12.3042L13.282 12.3346C13.2813 12.3549 13.2806 12.3752 13.2799 12.3956C13.2793 12.4158 13.2788 12.4362 13.2782 12.4565L13.2776 12.4869L13.2757 12.5308C13.2732 12.5898 13.2707 12.6487 13.2682 12.7074L13.2663 12.7515L13.2661 12.7569L13.266 12.7583C13.266 12.7649 13.2655 12.7059 13.2657 12.7314L13.2654 12.7336L13.2646 12.7422L13.263 12.7596C13.261 12.7827 13.2589 12.8057 13.2568 12.8287C13.2548 12.8516 13.2528 12.8744 13.2508 12.8971C13.2481 12.9197 13.2454 12.9422 13.2427 12.9645C13.237 13.0092 13.2335 13.0534 13.2264 13.0965C13.2201 13.1395 13.214 13.1819 13.208 13.2234C13.2008 13.2645 13.1938 13.3048 13.187 13.344C13.1809 13.3833 13.1726 13.4211 13.1653 13.4577C13.1576 13.4942 13.1515 13.5296 13.1435 13.5633C13.1357 13.5969 13.1283 13.6291 13.1212 13.6598C13.1177 13.6749 13.1143 13.6896 13.111 13.704C13.1076 13.7163 13.1043 13.7282 13.1011 13.7398C13.0992 13.7469 13.0974 13.7535 13.0956 13.7604H16.404C16.4483 13.7604 16.4853 13.7256 16.4869 13.6812C16.487 13.681 16.487 13.6807 16.487 13.6805C16.4897 13.6188 16.4926 13.5556 16.4954 13.4909C16.4967 13.4263 16.4979 13.3603 16.4992 13.2932C16.5011 13.2261 16.4991 13.1579 16.4989 13.089C16.4985 13.0546 16.4981 13.0199 16.4978 12.9851Z" fill="white" fill-opacity="0.7"/>
<path d="M15.6375 9.51268C15.6818 9.49481 15.7021 9.4434 15.6816 9.40017C15.6725 9.38095 15.6619 9.35849 15.6499 9.33307C15.6385 9.30919 15.6259 9.28275 15.6123 9.25397C15.5946 9.21797 15.5755 9.17907 15.5551 9.13749C15.5345 9.09607 15.5126 9.052 15.4895 9.00554C15.4778 8.98139 15.4663 8.96147 15.4543 8.9388C15.4423 8.91664 15.43 8.89397 15.4175 8.87081C15.3922 8.82459 15.3665 8.77627 15.3388 8.72679C15.3102 8.67785 15.2807 8.62722 15.2503 8.57518C15.2351 8.54923 15.2196 8.5229 15.204 8.49629C15.1876 8.47008 15.1711 8.44356 15.1544 8.41675C15.1207 8.36334 15.0864 8.30875 15.0514 8.25328C14.9777 8.14465 14.9043 8.03103 14.8224 7.92046C14.8023 7.89262 14.7821 7.86468 14.7618 7.83665L14.7313 7.79465L14.6996 7.75334C14.6572 7.69838 14.6146 7.64324 14.572 7.58808C14.5286 7.53356 14.4837 7.48019 14.4397 7.42662C14.4175 7.40001 14.396 7.37301 14.3733 7.347C14.3505 7.32108 14.3279 7.29523 14.3052 7.26948C14.2826 7.24383 14.2601 7.21823 14.2377 7.19278C14.2154 7.16723 14.1929 7.14212 14.1698 7.11783C14.1239 7.06898 14.0786 7.02072 14.034 6.97325C13.9894 6.92592 13.9432 6.88144 13.8992 6.83698C13.8549 6.79275 13.8119 6.74931 13.7679 6.70898C13.7244 6.66829 13.6821 6.62871 13.6412 6.59041C13.6005 6.55203 13.5589 6.51716 13.5202 6.48264C13.4811 6.44848 13.4437 6.41576 13.4081 6.38463C13.3716 6.35454 13.3369 6.326 13.3044 6.29919C13.2718 6.27248 13.2413 6.24749 13.2132 6.22438C13.1849 6.20136 13.1579 6.1814 13.1341 6.16279C13.0995 6.13619 13.0702 6.11373 13.047 6.09588C13.0115 6.06866 12.961 6.07447 12.9325 6.10894L11.4806 7.86635C11.4532 7.89949 11.4556 7.94793 11.4861 7.97818C11.4983 7.99017 11.5123 8.00405 11.528 8.01966C11.5431 8.03483 11.5605 8.0509 11.5782 8.06966C11.596 8.08841 11.6151 8.1087 11.6356 8.13036C11.6562 8.15192 11.678 8.17486 11.701 8.19905C11.7231 8.22401 11.7465 8.2503 11.7708 8.2777C11.7948 8.30535 11.8211 8.3328 11.8461 8.36342C11.8713 8.39374 11.8974 8.42507 11.9242 8.45728C11.9515 8.48891 11.9775 8.52325 12.0045 8.55795C12.0312 8.59288 12.0598 8.62732 12.0866 8.66426C12.1134 8.70107 12.1407 8.7385 12.1683 8.77639C12.1823 8.79504 12.1957 8.81449 12.2089 8.83423C12.2222 8.85383 12.2355 8.8735 12.249 8.89328C12.2624 8.91295 12.2759 8.93272 12.2894 8.95256C12.303 8.9724 12.3153 8.99315 12.3284 9.01344C12.354 9.0544 12.3806 9.09476 12.4058 9.136C12.4303 9.17765 12.4549 9.21932 12.4794 9.2608L12.4977 9.29176L12.5149 9.32337C12.5264 9.34436 12.5379 9.36531 12.5493 9.38614C12.5963 9.46848 12.6361 9.55338 12.6776 9.63315C12.6967 9.67404 12.7154 9.71423 12.7337 9.7536C12.7429 9.77321 12.7519 9.79261 12.7609 9.81176C12.7692 9.83126 12.7774 9.85051 12.7855 9.86953C12.8017 9.90735 12.8175 9.9442 12.8328 9.97979C12.847 10.0159 12.8606 10.0507 12.8737 10.0842C12.8803 10.1009 12.8867 10.1173 12.8929 10.1332C12.8989 10.1488 12.9062 10.1657 12.9101 10.1787C12.9195 10.206 12.9283 10.2318 12.9367 10.2562C12.9451 10.2803 12.9531 10.3029 12.9605 10.3238C12.9701 10.3526 12.979 10.379 12.987 10.4029C12.9959 10.4296 13.0037 10.4532 13.0105 10.4734C13.0256 10.5187 13.0758 10.5419 13.1202 10.524L15.6375 9.51268Z" fill="white" fill-opacity="0.7"/>
<path d="M8.24413 6.37355C8.26613 6.37655 8.29045 6.37986 8.31696 6.38348C8.3433 6.38807 8.37179 6.39303 8.40223 6.39834C8.43261 6.40356 8.46494 6.4091 8.49902 6.41496C8.52862 6.41988 8.55929 6.42702 8.59118 6.43369L9.50744 4.55947C9.46202 4.55238 9.41697 4.54534 9.37282 4.53845C9.34258 4.53396 9.3128 4.52879 9.28314 4.52508C9.25348 4.52149 9.22418 4.51794 9.19526 4.51444C9.13751 4.50758 9.08134 4.50089 9.02703 4.49444C8.97256 4.48978 8.91993 4.48527 8.86942 4.48094C8.81889 4.47706 8.77071 4.47196 8.72458 4.46977C8.67853 4.46751 8.63485 4.46536 8.5938 4.46334C8.55279 4.4614 8.51443 4.4596 8.47897 4.45791C8.44349 4.45734 8.41088 4.45682 8.38143 4.45635C8.33999 4.45584 8.30483 4.45542 8.27664 4.45508C8.23192 4.45455 8.19492 4.48949 8.19278 4.53416L8.10923 6.27861C8.10717 6.32159 8.13818 6.35901 8.18081 6.36486C8.19896 6.36735 8.22013 6.37026 8.24413 6.37355Z" fill="white" fill-opacity="0.7"/>
<path d="M10.7067 7.33417C10.7314 7.35208 10.7547 7.36905 10.7766 7.38504C10.7986 7.40077 10.8192 7.41549 10.8382 7.42911C10.8464 7.43477 10.86 7.44508 10.8711 7.45333C10.8825 7.46187 10.8934 7.47 10.9038 7.47772C10.9263 7.49454 10.9462 7.5094 10.9633 7.52211C11.0016 7.55071 11.056 7.54104 11.0822 7.50106L12.2785 5.67883C12.3048 5.63884 12.292 5.58507 12.2505 5.56127C12.2321 5.55069 12.2105 5.53833 12.1862 5.52433C12.175 5.5179 12.1632 5.51115 12.1508 5.50404C12.1373 5.49641 12.1232 5.48843 12.1085 5.48011C12.0744 5.46134 12.0376 5.44108 11.9983 5.41941C11.959 5.39797 11.9171 5.37516 11.8729 5.3511C11.8309 5.33003 11.7867 5.30788 11.7406 5.28476C11.6943 5.26215 11.647 5.23701 11.5963 5.21419C11.5459 5.19108 11.4937 5.16718 11.4401 5.14261C11.3869 5.11748 11.3307 5.09466 11.2737 5.07071C11.2164 5.04727 11.1588 5.02163 11.0986 4.99902C11.0834 4.99324 11.0679 4.98739 11.0526 4.98157L10.5365 7.22152C10.565 7.23944 10.5919 7.25843 10.6184 7.27558C10.6492 7.29601 10.6787 7.31556 10.7067 7.33417Z" fill="white" fill-opacity="0.7"/>
<path d="M6.63785 6.36444C6.66096 6.3614 6.68365 6.35762 6.7063 6.35523C6.72895 6.35294 6.75134 6.35067 6.7734 6.34841C6.81744 6.34385 6.86027 6.3394 6.90172 6.33509C6.94329 6.33231 6.98345 6.32962 7.02201 6.32702C7.04124 6.32571 7.06007 6.32443 7.07848 6.32317C7.09683 6.32194 7.11523 6.32037 7.13099 6.32035C7.16348 6.31949 7.19432 6.3187 7.22327 6.31794C7.25214 6.31703 7.27912 6.31618 7.30411 6.31538C7.33491 6.31518 7.36321 6.315 7.38874 6.31483C7.41687 6.31468 7.44173 6.31454 7.46298 6.31442C7.51081 6.31417 7.5484 6.27367 7.54527 6.22594L7.43758 4.58266C7.43443 4.53492 7.39189 4.49967 7.34445 4.50567C7.32334 4.50833 7.2987 4.51145 7.2708 4.51497C7.24493 4.51825 7.21628 4.52191 7.18509 4.52588C7.14824 4.53135 7.10839 4.53725 7.06579 4.54356C7.02334 4.55003 6.97813 4.55692 6.93049 4.56418C6.9061 4.56762 6.88365 4.57218 6.86009 4.57663C6.83659 4.58111 6.81256 4.5857 6.78802 4.59039C6.73903 4.59985 6.68801 4.60972 6.63516 4.61993C6.58273 4.63187 6.5285 4.64423 6.47277 4.65691C6.44496 4.66329 6.41677 4.66978 6.38824 4.67635C6.35974 4.68302 6.33116 4.69117 6.30218 4.69866C6.24432 4.71407 6.18526 4.72982 6.12517 4.74582C6.06568 4.76376 6.0052 4.78198 5.944 4.80044C5.91348 4.80989 5.88264 4.8188 5.85199 4.82889C5.82147 4.83931 5.79073 4.84977 5.75991 4.8603C5.72914 4.87084 5.69825 4.88142 5.66728 4.89204C5.63629 4.90259 5.60525 4.91318 5.57463 4.92526C5.51324 4.94868 5.45162 4.97221 5.38999 4.99574C5.32864 5.01976 5.26829 5.04637 5.20781 5.07155C5.17766 5.0844 5.14743 5.09679 5.11764 5.10998C5.08805 5.12364 5.05856 5.13725 5.02917 5.15082C4.99985 5.1644 4.97062 5.17794 4.94157 5.19139C4.91252 5.20483 4.88358 5.21807 4.85546 5.23267C4.799 5.26117 4.74324 5.28933 4.6884 5.31702C4.63355 5.34452 4.58127 5.37487 4.52935 5.40281C4.47766 5.43128 4.42683 5.45843 4.37888 5.48768C4.33066 5.51628 4.28375 5.54412 4.23838 5.57103C4.19287 5.59757 4.15067 5.62624 4.1093 5.65214C4.06823 5.67847 4.02887 5.70371 3.99143 5.72771C3.9548 5.75286 3.92003 5.77671 3.88738 5.79912C3.8548 5.82156 3.82432 5.84254 3.79613 5.86196C3.76797 5.88138 3.74306 5.90063 3.7201 5.91727C3.68899 5.94024 3.66243 5.95985 3.64094 5.97571C3.60505 6.00221 3.59663 6.05224 3.62173 6.08914L4.30408 7.09236C4.32837 7.12806 4.37585 7.13926 4.41346 7.11803C4.43079 7.10826 4.45127 7.09669 4.47463 7.08352C4.49499 7.07225 4.51702 7.05894 4.54189 7.04599C4.56675 7.03302 4.59363 7.01905 4.62235 7.00409C4.65098 6.98912 4.68146 6.97318 4.71358 6.95639C4.74625 6.94073 4.7806 6.92426 4.81644 6.90708C4.85244 6.8903 4.88897 6.87109 4.92837 6.85433C4.96746 6.83717 5.00788 6.81943 5.04945 6.80119C5.09059 6.78225 5.13418 6.76569 5.17827 6.74801C5.2226 6.73083 5.26699 6.71139 5.3135 6.69497C5.35979 6.67828 5.40688 6.66132 5.45453 6.64414C5.47816 6.63516 5.50248 6.62757 5.52685 6.61979C5.55117 6.61196 5.57563 6.60409 5.60016 6.59619C5.62465 6.58828 5.64924 6.58033 5.6739 6.57234C5.69869 6.56481 5.72384 6.55808 5.74881 6.55087C5.79899 6.53699 5.84882 6.5216 5.89935 6.5087C5.94991 6.49618 6.00047 6.48367 6.05082 6.47122C6.07582 6.46457 6.10118 6.45937 6.12643 6.45416C6.15162 6.44886 6.17675 6.44357 6.2018 6.4383C6.22676 6.43299 6.25163 6.42772 6.27639 6.42247C6.3012 6.41751 6.32614 6.41369 6.35075 6.40926C6.39996 6.40072 6.44857 6.39227 6.4964 6.38398C6.5444 6.37736 6.59161 6.37083 6.63785 6.36444Z" fill="white" fill-opacity="0.7"/>
<path d="M1.98501 7.66156C1.96712 7.68686 1.94917 7.71227 1.93113 7.73779C1.91314 7.76329 1.89509 7.78889 1.87697 7.81457C1.85893 7.84029 1.84205 7.86697 1.8245 7.89321C1.78991 7.94604 1.75451 7.99847 1.72062 8.05189C1.68753 8.10577 1.65443 8.15965 1.62147 8.21333L1.59688 8.25351L1.57354 8.29435C1.55803 8.3215 1.54257 8.3486 1.52716 8.37557C1.46417 8.48257 1.40945 8.59194 1.35384 8.69582C1.32795 8.74879 1.30249 8.80088 1.27756 8.85188C1.2652 8.87734 1.25295 8.90257 1.24088 8.92747C1.22951 8.9527 1.21829 8.97764 1.20721 9.00226C1.18515 9.05141 1.16369 9.09924 1.14292 9.14549C1.12356 9.19233 1.10483 9.23756 1.08686 9.28098C1.06924 9.32454 1.05144 9.36575 1.03626 9.40575C1.02129 9.44578 1.00708 9.48378 0.993703 9.51947C0.980398 9.55512 0.967952 9.58849 0.956448 9.61934C0.945821 9.6505 0.93607 9.67911 0.927244 9.70497C0.915792 9.73895 0.905956 9.76813 0.897922 9.79201C0.883691 9.83421 0.905333 9.88001 0.946933 9.89596L1.58205 10.1394C1.62247 10.1549 1.66799 10.1368 1.68667 10.0978C1.69593 10.0785 1.707 10.0553 1.71971 10.0287C1.73026 10.0068 1.74191 9.98253 1.75463 9.9561C1.76813 9.93005 1.78274 9.90192 1.79835 9.87182C1.81391 9.84183 1.83045 9.80984 1.8479 9.77616C1.86548 9.74258 1.88573 9.70813 1.90582 9.67175C1.92616 9.63558 1.94737 9.59787 1.96931 9.55883C1.99244 9.52055 2.01634 9.48093 2.04093 9.44021C2.05317 9.41988 2.06558 9.39928 2.07815 9.37843C2.09137 9.35797 2.10476 9.33729 2.11828 9.31632C2.14533 9.27455 2.17297 9.23191 2.20108 9.18849C2.2608 9.10394 2.31921 9.01489 2.38521 8.92902C2.40133 8.90731 2.41751 8.88553 2.43375 8.86369L2.45809 8.83089L2.48359 8.79883C2.51754 8.75606 2.55163 8.71317 2.58572 8.67027C2.62043 8.6279 2.65645 8.58662 2.69147 8.54498C2.70922 8.52432 2.72626 8.50323 2.74444 8.48314C2.76262 8.46308 2.78075 8.44307 2.7988 8.42315C2.81682 8.40324 2.83476 8.38342 2.85261 8.36368C2.8703 8.34384 2.88815 8.32435 2.90669 8.30567C2.94317 8.26789 2.97921 8.23057 3.01467 8.19384C3.05005 8.15718 3.08699 8.12315 3.12185 8.08876C3.15698 8.05462 3.19097 8.02094 3.22597 7.99007C3.26039 7.95874 3.29387 7.92827 3.32628 7.89878C3.35841 7.86912 3.39152 7.84265 3.42211 7.81607C3.4529 7.78985 3.4824 7.76472 3.51046 7.74082C3.53802 7.71901 3.56415 7.69833 3.58871 7.67886C3.61313 7.65942 3.63599 7.64122 3.65712 7.62437C3.66682 7.61636 3.67996 7.60676 3.69106 7.59832C3.70244 7.58971 3.71331 7.58153 3.72362 7.57376C3.74607 7.5568 3.76589 7.54185 3.78287 7.52905C3.82105 7.50023 3.82696 7.44529 3.7959 7.40891L3.07279 6.56177C3.04173 6.52539 2.98654 6.52261 2.9521 6.55579C2.93679 6.57054 2.91888 6.58777 2.89864 6.60729C2.88934 6.61624 2.87954 6.62569 2.86927 6.63557C2.85881 6.64573 2.84886 6.65497 2.83589 6.66823C2.8111 6.69324 2.7843 6.7203 2.75565 6.74921C2.72716 6.77812 2.69682 6.80889 2.66484 6.84133C2.63511 6.87353 2.60385 6.90739 2.57125 6.94271C2.53905 6.97829 2.50432 7.01415 2.47072 7.05346C2.43698 7.09257 2.40212 7.133 2.36626 7.17455C2.32997 7.21561 2.29485 7.25972 2.25873 7.30447C2.22287 7.34946 2.18508 7.39434 2.14902 7.44191C2.11306 7.48947 2.07651 7.53782 2.03953 7.5868C2.02073 7.61107 2.00276 7.63613 1.98501 7.66156Z" fill="white" fill-opacity="0.7"/>
<path d="M0.671031 10.6316C0.666804 10.6524 0.661852 10.6768 0.656244 10.7044C0.651107 10.7297 0.645414 10.7577 0.639217 10.7882C0.633137 10.8194 0.627191 10.8562 0.620556 10.8938C0.614021 10.9318 0.607082 10.9722 0.599772 11.0147C0.596236 11.036 0.592193 11.0579 0.588842 11.08C0.585861 11.102 0.582829 11.1244 0.579714 11.1474C0.567857 11.2392 0.552244 11.338 0.54325 11.4436C0.538029 11.4962 0.532674 11.5502 0.5272 11.6054C0.522686 11.6607 0.519672 11.7173 0.515781 11.7747C0.506686 11.8894 0.505019 12.0084 0.501229 12.1288L0.5 12.174L0.500219 12.2194C0.500387 12.2498 0.500556 12.2802 0.500724 12.3106C0.500909 12.3411 0.501095 12.3715 0.501263 12.402L0.501549 12.4478L0.503301 12.4936C0.505777 12.5545 0.508253 12.6155 0.510728 12.6762L0.512598 12.7216L0.51317 12.7363L0.513979 12.7472L0.515596 12.7691C0.517752 12.7983 0.51989 12.8273 0.522029 12.8563C0.524168 12.8853 0.526307 12.9142 0.528413 12.9429C0.531326 12.9728 0.534206 13.0026 0.537103 13.0323C0.540017 13.0619 0.542914 13.0913 0.545794 13.1205C0.547242 13.1351 0.54869 13.1497 0.550139 13.1641C0.551941 13.1784 0.553743 13.1926 0.555528 13.2067C0.562703 13.2631 0.56976 13.3186 0.576665 13.373C0.585002 13.4271 0.593153 13.48 0.601069 13.5315C0.60848 13.583 0.618029 13.6328 0.626804 13.6809C0.627528 13.6848 0.628252 13.6886 0.62896 13.6924C0.636286 13.7318 0.670543 13.7603 0.710576 13.7603H0.934424C0.982222 13.7603 1.02015 13.7201 1.01734 13.6724C1.01658 13.6596 1.01581 13.6468 1.01495 13.6338C1.01215 13.5874 1.00878 13.5395 1.0077 13.4901C1.00609 13.4408 1.00444 13.3901 1.00274 13.3384C1.00242 13.2866 1.0021 13.2338 1.00178 13.18C1.00169 13.1666 1.00161 13.1531 1.00152 13.1396C1.00181 13.1262 1.00211 13.1128 1.00242 13.0994C1.00301 13.0726 1.00359 13.0455 1.0042 13.0183C1.00479 12.9912 1.0054 12.9639 1.006 12.9364C1.00735 12.9077 1.00868 12.8787 1.01005 12.8497C1.01139 12.8207 1.01276 12.7916 1.0141 12.7624L1.01513 12.7404L1.01564 12.7294L1.0157 12.7281C1.0157 12.7246 1.01577 12.7313 1.01581 12.7301L1.01601 12.7275L1.01643 12.7222L1.01983 12.6797C1.02434 12.623 1.02887 12.5662 1.03342 12.5093L1.03689 12.4667L1.04179 12.4243C1.04506 12.396 1.04831 12.3678 1.05156 12.3396C1.05479 12.3114 1.05803 12.2834 1.06125 12.2554L1.06605 12.2135L1.07226 12.1718C1.0893 12.0612 1.10379 11.9523 1.12501 11.8481C1.13496 11.7959 1.14387 11.7445 1.1541 11.6945C1.16523 11.6447 1.17611 11.596 1.1867 11.5486C1.20631 11.4536 1.23172 11.3653 1.2524 11.2834C1.25771 11.263 1.2629 11.2429 1.26796 11.2234C1.27332 11.2041 1.2791 11.1859 1.28442 11.1679C1.29515 11.1319 1.30534 11.0979 1.3149 11.0658C1.32469 11.0335 1.33272 11.0046 1.34209 10.9756C1.35191 10.9461 1.3609 10.919 1.36905 10.8945C1.37791 10.8678 1.38574 10.8442 1.39244 10.824C1.40752 10.7786 1.38119 10.73 1.33498 10.7177L0.773818 10.568C0.727587 10.5557 0.680564 10.5847 0.671031 10.6316Z" fill="white" fill-opacity="0.7"/>
<path d="M7.02319 13.5402C7.20576 13.6295 7.39916 13.6718 7.58956 13.6718C8.06751 13.6718 8.52683 13.4055 8.75088 12.9472C8.79403 12.859 8.82743 12.7616 8.84915 12.6699L10.1557 6.99887L10.6533 4.83916L10.9616 3.50128C10.9974 3.34557 10.8736 3.2395 10.7493 3.2395C10.6766 3.2395 10.6037 3.27586 10.5626 3.35989L9.93531 4.64297L9.00993 6.53578L6.43013 11.8126C6.11681 12.4534 6.38235 13.227 7.02319 13.5402ZM7.63746 11.714C7.98709 11.714 8.27052 11.9974 8.27052 12.3471C8.27052 12.6967 7.98709 12.9801 7.63746 12.9801C7.28783 12.9801 7.0044 12.6967 7.0044 12.3471C7.0044 11.9974 7.28783 11.714 7.63746 11.714Z" fill="white"/>
</g>
<defs>
<clipPath id="clip0_23_2489">
<rect width="16" height="16" fill="white" transform="translate(0.5 0.5)"/>
</clipPath>
</defs>
</svg>
