<svg width="16" height="16" viewBox="0 0 16 16" fill="none" xmlns="http://www.w3.org/2000/svg">
<path d="M1.06121 3.50062C1.65119 4.85431 2.64721 6.19325 4.04096 6.77038C4.20006 6.83577 4.3807 6.88482 4.56631 6.92569C4.93754 6.37964 5.36346 5.93658 5.86229 5.57365C6.29151 5.26303 6.74064 5.01943 7.203 4.82814C7.07042 4.73658 6.93123 4.65321 6.78537 4.578C6.20533 4.27882 5.57724 4.01561 4.9657 3.73277C5.54077 3.88645 6.20036 3.94367 6.75057 4.14149C7.09362 4.26576 7.41016 4.43742 7.70515 4.64178C8.58517 4.34585 9.50495 4.20362 10.4231 4.09573C9.67897 2.87612 8.09129 1.89683 6.89475 1.45378C5.64518 0.991099 4.22987 0.933879 2.83943 0.791662C1.9876 0.704997 1.06119 0.391119 0.383369 0.0249083C0.229244 -0.05847 0.065175 0.0804938 0.118207 0.248885C0.451334 1.30009 0.620374 2.49027 1.06121 3.50062Z" fill="white" fill-opacity="0.7"/>
<path d="M15.7527 3.34041C14.185 4.18074 12.3868 4.28373 10.6252 4.48319C9.76508 4.58128 8.91324 4.70224 8.10282 4.94422C7.92715 4.99652 7.7515 5.05539 7.57913 5.12078C7.06704 5.3137 6.57317 5.5671 6.10748 5.90552C5.66997 6.22267 5.312 6.5987 5.01038 7.01233C4.52978 7.6728 4.19501 8.43301 3.91991 9.22267C3.41776 10.6564 3.1874 12.1801 3.23214 13.6957C3.25037 14.3104 3.26032 14.9496 3.41444 15.5496C3.44925 15.682 3.48239 15.8504 3.5868 15.9485C3.72269 16.0776 3.96631 15.9452 3.91162 15.7572C3.51719 14.4313 3.76247 12.8815 4.3077 11.6145C4.93415 10.1578 6.14394 9.29131 7.62222 8.76327C8.01499 8.62267 8.41606 8.50005 8.82373 8.38398C8.83201 8.38073 8.8403 8.38073 8.84859 8.38073C8.92979 8.38073 8.96459 8.49842 8.88007 8.53604C8.39947 8.75021 7.92218 8.96601 7.46808 9.19979C5.24404 10.3442 4.27289 13.009 5.10649 13.009C5.17445 13.009 5.25398 12.9911 5.34513 12.9534C6.63116 12.4287 8.15915 12.4238 9.57279 12.1655C10.07 12.0755 10.5539 11.9529 11.008 11.7666C12.8111 11.0243 14.1004 9.57256 14.8677 7.82652C15.4395 6.52353 15.6616 4.98512 16.0941 3.63144C16.1504 3.45814 16.0261 3.30938 15.8737 3.30938C15.8356 3.30772 15.7942 3.31754 15.7527 3.34041Z" fill="white"/>
</svg>
