<svg width="16" height="16" viewBox="0 0 16 16" fill="none" xmlns="http://www.w3.org/2000/svg">
<g clip-path="url(#clip0_23_2475)">
<path d="M4 14.625H2C1.83426 14.625 1.67532 14.5591 1.55813 14.4419C1.44093 14.3247 1.37506 14.1658 1.375 14V12C1.37356 11.9015 1.33341 11.8076 1.26324 11.7384C1.19307 11.6693 1.09851 11.6305 0.999991 11.6305C0.901473 11.6305 0.806912 11.6693 0.736744 11.7384C0.666576 11.8076 0.626437 11.9016 0.625 12.0001V14C0.625642 14.3645 0.770714 14.7139 1.02844 14.9716C1.28616 15.2293 1.63552 15.3744 2 15.375H4C4.09854 15.3737 4.19257 15.3335 4.26176 15.2634C4.33095 15.1932 4.36973 15.0986 4.36973 15C4.36973 14.9015 4.33095 14.8069 4.26176 14.7367C4.19257 14.6666 4.09854 14.6264 4 14.625V14.625Z" fill="white"/>
<path d="M15.0001 11.625C14.9508 11.6249 14.902 11.6346 14.8565 11.6534C14.8109 11.6722 14.7696 11.6999 14.7347 11.7347C14.6999 11.7695 14.6723 11.8109 14.6535 11.8564C14.6346 11.9019 14.625 11.9507 14.6251 12V14C14.625 14.1657 14.5591 14.3247 14.4419 14.4419C14.3247 14.5591 14.1658 14.6249 14.0001 14.625H12C11.9015 14.6264 11.8076 14.6666 11.7384 14.7368C11.6693 14.8069 11.6305 14.9015 11.6305 15C11.6305 15.0985 11.6693 15.1931 11.7384 15.2633C11.8076 15.3334 11.9016 15.3736 12.0001 15.375H14.0001C14.3645 15.3744 14.7139 15.2293 14.9716 14.9716C15.2293 14.7138 15.3744 14.3645 15.3751 14V12C15.3751 11.9507 15.3655 11.9019 15.3466 11.8564C15.3278 11.8109 15.3002 11.7695 15.2654 11.7347C15.2305 11.6999 15.1892 11.6722 15.1436 11.6534C15.0981 11.6346 15.0493 11.6249 15.0001 11.625V11.625Z" fill="white"/>
<path d="M1 4.37501C1.04926 4.37507 1.09806 4.36542 1.14358 4.3466C1.18911 4.32777 1.23048 4.30015 1.26531 4.26532C1.30015 4.23048 1.32777 4.18912 1.34659 4.14359C1.36541 4.09806 1.37507 4.04927 1.375 4.00001V2C1.37506 1.83426 1.44093 1.67532 1.55812 1.55813C1.67532 1.44093 1.83426 1.37506 2 1.375H4C4.0985 1.37356 4.19249 1.33342 4.26164 1.26324C4.33079 1.19307 4.36955 1.09851 4.36955 0.999992C4.36955 0.901474 4.33078 0.806913 4.26163 0.736744C4.19247 0.666576 4.09849 0.626437 3.99998 0.625H2C1.63552 0.62564 1.28616 0.770711 1.02843 1.02844C0.770711 1.28616 0.62564 1.63553 0.625 2V4.00001C0.624935 4.04927 0.634589 4.09806 0.653411 4.14359C0.672234 4.18912 0.699853 4.23048 0.734688 4.26532C0.769523 4.30015 0.810889 4.32777 0.856416 4.3466C0.901943 4.36542 0.950736 4.37507 1 4.37501Z" fill="white"/>
<path d="M14 0.625H12C11.9005 0.625 11.8052 0.664509 11.7348 0.734835C11.6645 0.805161 11.625 0.900544 11.625 1C11.625 1.09946 11.6645 1.19484 11.7348 1.26517C11.8052 1.33549 11.9005 1.375 12 1.375H14C14.1657 1.37506 14.3247 1.44093 14.4419 1.55812C14.5591 1.67532 14.6249 1.83426 14.625 2V4C14.6264 4.09851 14.6666 4.19249 14.7368 4.26164C14.8069 4.33079 14.9015 4.36956 15 4.36955C15.0985 4.36955 15.1931 4.33078 15.2633 4.26163C15.3334 4.19248 15.3736 4.09849 15.375 3.99998V2C15.3744 1.63552 15.2293 1.28616 14.9716 1.02843C14.7138 0.770711 14.3645 0.62564 14 0.625V0.625Z" fill="white"/>
<path d="M3.625 5V6.875H12.375V5C12.3744 4.63552 12.2293 4.28616 11.9716 4.02843C11.7138 3.77071 11.3645 3.62564 11 3.625H5C4.63552 3.62564 4.28616 3.77071 4.02843 4.02843C3.77071 4.28616 3.62564 4.63552 3.625 5Z" fill="white"/>
<path d="M12.375 11V8.375H14C14.0995 8.375 14.1949 8.33549 14.2652 8.26517C14.3355 8.19484 14.375 8.09946 14.375 8C14.375 7.90054 14.3355 7.80516 14.2652 7.73484C14.1949 7.66451 14.0995 7.625 14 7.625H2.00005C1.90154 7.62644 1.80755 7.66659 1.7384 7.73676C1.66925 7.80693 1.63049 7.90149 1.63049 8.00001C1.6305 8.09853 1.66926 8.19309 1.73842 8.26326C1.80757 8.33342 1.90156 8.37356 2.00007 8.375H3.62505V11C3.62569 11.3645 3.77076 11.7138 4.02848 11.9716C4.28621 12.2293 4.63557 12.3744 5.00005 12.375H11C11.3645 12.3744 11.7139 12.2293 11.9716 11.9716C12.2293 11.7138 12.3744 11.3645 12.375 11V11Z" fill="white" fill-opacity="0.7"/>
</g>
<defs>
<clipPath id="clip0_23_2475">
<rect width="16" height="16" fill="white"/>
</clipPath>
</defs>
</svg>
