<svg width="21" height="22" viewBox="0 0 21 22" fill="none" xmlns="http://www.w3.org/2000/svg">
<path d="M4.50081 2.04199H16.5085C16.442 1.22906 15.9489 0.785645 15.0384 0.785645H5.96146C5.06041 0.785645 4.55772 1.22906 4.50081 2.04199ZM2.56593 4.71172H18.4434C18.3105 3.83413 17.8553 3.33529 16.8499 3.33529H4.15936C3.15398 3.33529 2.69871 3.83413 2.56593 4.71172ZM3.68513 21.3214H17.3147C19.2875 21.3214 20.3213 20.3237 20.3213 18.4207V9.11815C20.3213 7.21518 19.2875 6.21749 17.3147 6.21749H3.68513C1.70282 6.21749 0.678467 7.20594 0.678467 9.11815V18.4207C0.678467 20.3237 1.70282 21.3214 3.68513 21.3214Z" fill="#28AF6E"/>
</svg>
