<svg width="74" height="64" viewBox="0 0 74 64" fill="none" xmlns="http://www.w3.org/2000/svg">
<g filter="url(#filter0_i_35_18361)">
<circle cx="36" cy="32" r="32" fill="url(#paint0_linear_35_18361)"/>
</g>
<circle cx="36" cy="32" r="30" stroke="white" stroke-opacity="0.24" stroke-width="4"/>
<path fill-rule="evenodd" clip-rule="evenodd" d="M32.7877 21.7856C33.2341 21.7856 33.5966 22.1505 33.5966 22.6011C33.5966 23.0505 33.2352 23.4154 32.7877 23.4154L31.0562 23.4165C29.6191 23.4186 28.4499 24.5968 28.4499 26.0446V28.0736C28.4499 28.523 28.0864 28.889 27.64 28.889C27.1935 28.889 26.8311 28.523 26.8311 28.0736V26.0446C26.8311 23.699 28.7263 21.7889 31.0552 21.7867L32.7867 21.7856H32.7877ZM40.412 21.7859H42.1052C44.4404 21.7859 46.3388 23.6971 46.3388 26.0481V28.0738C46.3388 28.5233 45.9774 28.8893 45.5299 28.8893C45.0835 28.8893 44.7211 28.5233 44.7211 28.0738V26.0481C44.7211 24.596 43.5476 23.4146 42.1052 23.4146H40.412C39.9655 23.4146 39.6031 23.0508 39.6031 22.6013C39.6031 22.1508 39.9655 21.7859 40.412 21.7859ZM39.5212 25.8699H33.6496C32.3061 25.8838 31.2261 26.9892 31.2378 28.3429V29.702C31.241 29.8603 31.3675 29.9898 31.5248 29.9952H41.6439C41.8023 29.9909 41.9287 29.8614 41.9341 29.702V28.3429C41.9351 27.6891 41.6843 27.0609 41.2315 26.5933C40.7818 26.13 40.1643 25.8699 39.5212 25.8699ZM25.7028 31.6521H47.4683C47.9147 31.6521 48.2772 32.017 48.2772 32.4675C48.2772 32.9169 47.9147 33.2808 47.4683 33.2808H46.3395V37.1652C46.3395 39.5173 44.44 41.4285 42.1058 41.4285H40.4126C39.9651 41.4285 39.6026 41.0636 39.6026 40.6131C39.6026 40.1636 39.9651 39.7987 40.4126 39.7987H42.1058C43.5482 39.7987 44.7217 38.6184 44.7217 37.1652V33.2808H41.9336V34.3626C41.9443 35.7163 40.8654 36.8228 39.5208 36.8356H33.6492C32.3057 36.8228 31.2268 35.7163 31.2374 34.3626V33.2808H28.4494V37.1695C28.4494 38.6173 29.6197 39.7955 31.0578 39.7977L32.7882 39.7987C33.2347 39.7987 33.5971 40.1636 33.5971 40.6131C33.5961 41.0636 33.2347 41.4285 32.7872 41.4285L31.0557 41.4274C28.7268 41.4253 26.8305 39.5152 26.8305 37.1695V33.2808H25.7028C25.2563 33.2808 24.8928 32.9169 24.8928 32.4675C24.8928 32.017 25.2563 31.6521 25.7028 31.6521Z" fill="white"/>
<defs>
<filter id="filter0_i_35_18361" x="4" y="0" width="64" height="64" filterUnits="userSpaceOnUse" color-interpolation-filters="sRGB">
<feFlood flood-opacity="0" result="BackgroundImageFix"/>
<feBlend mode="normal" in="SourceGraphic" in2="BackgroundImageFix" result="shape"/>
<feColorMatrix in="SourceAlpha" type="matrix" values="0 0 0 0 0 0 0 0 0 0 0 0 0 0 0 0 0 0 127 0" result="hardAlpha"/>
<feMorphology radius="5" operator="erode" in="SourceAlpha" result="effect1_innerShadow_35_18361"/>
<feOffset/>
<feGaussianBlur stdDeviation="2"/>
<feComposite in2="hardAlpha" operator="arithmetic" k2="-1" k3="1"/>
<feColorMatrix type="matrix" values="0 0 0 0 0 0 0 0 0 0 0 0 0 0 0 0 0 0 0.01 0"/>
<feBlend mode="normal" in2="shape" result="effect1_innerShadow_35_18361"/>
</filter>
<linearGradient id="paint0_linear_35_18361" x1="36" y1="9.53674e-07" x2="68" y2="64" gradientUnits="userSpaceOnUse">
<stop stop-color="#28AF6E"/>
<stop offset="1" stop-color="#2CCC80"/>
</linearGradient>
</defs>
</svg>
